<svg xmlns="http://www.w3.org/2000/svg" xmlns:xlink="http://www.w3.org/1999/xlink" width="529.928" height="409.057" viewBox="0 0 529.928 409.057"><defs><style>.a{opacity:0.23;}.b{fill:url(#a);}.c{fill:url(#b);}.d{fill:url(#c);}.e{fill:url(#e);}.f{fill:url(#f);}.g{fill:url(#g);}.h{fill:url(#h);}.i{fill:url(#i);}.j{fill:url(#l);}.k{fill:url(#p);}.l{fill:url(#s);}.m{fill:url(#t);}.n{fill:url(#u);}.o{fill:#cfe5ff;}.p{fill:#b8e3c2;}.q{fill:#9ecdbb;}.af,.r{fill:none;stroke-miterlimit:10;}.r{stroke:#d8171c;stroke-width:2px;}.s{fill:#e5ebf4;}.t{fill:#d85c1c;}.u{fill:#b14800;}.v{fill:#e7d1ad;}.w{fill:#e0bd82;}.x{fill:#e7cb9e;}.y{fill:#e0b695;}.z{fill:#e0ab82;}.aa{fill:#393939;}.ab{fill:#2638a3;}.ac{fill:#12259a;}.ad{fill:#424242;}.ae{fill:#e5f1ff;}.af{stroke:#000;stroke-linecap:round;}.ag{fill:#d49500;}.ah{fill:url(#x);}.ai{fill:#e1e3e6;}.aj{fill:#ffb700;}.ak{fill:#e7e7e6;}.al{fill:#ffc400;}.am{fill:#fefefe;}.an{fill:#eaf4ff;}.ao{fill:#606060;}.ap{fill:#d8171c;}.aq{fill:#a60006;}.ar{fill:url(#y);}.as{fill:url(#z);}.at{fill:#ffa1a1;}.au{fill:#547efd;}.av{fill:#c3f0ce;}.aw{fill:#3f69d0;}.ax{fill:#f7fbfc;}</style><linearGradient id="a" y1="0.5" x2="1.001" y2="0.5" gradientUnits="objectBoundingBox"><stop offset="0" stop-color="#bb7ad5"/><stop offset="1" stop-color="#fbfbfb"/></linearGradient><linearGradient id="b" y1="0.5" x2="1" y2="0.5" xlink:href="#a"/><linearGradient id="c" y1="0.5" x2="0.999" y2="0.5" xlink:href="#a"/><linearGradient id="e" y1="0.5" x2="1" y2="0.5" xlink:href="#a"/><linearGradient id="f" y1="0.5" x2="1" y2="0.5" xlink:href="#a"/><linearGradient id="g" y1="0.5" x2="1" y2="0.5" xlink:href="#a"/><linearGradient id="h" y1="0.5" x2="1" y2="0.5" xlink:href="#a"/><linearGradient id="i" y1="0.5" x2="1" y2="0.5" xlink:href="#a"/><linearGradient id="l" y1="0.501" x2="1" y2="0.501" xlink:href="#a"/><linearGradient id="p" y1="0.5" x2="1" y2="0.5" xlink:href="#a"/><linearGradient id="s" y1="0.5" x2="1" y2="0.5" xlink:href="#a"/><linearGradient id="t" y1="0.5" x2="1" y2="0.5" xlink:href="#a"/><linearGradient id="u" y1="0.499" x2="1" y2="0.499" xlink:href="#a"/><linearGradient id="x" x1="0.5" y1="1" x2="0.5" gradientUnits="objectBoundingBox"><stop offset="0" stop-color="#cac7c2"/><stop offset="0.22" stop-color="#dedcd9"/><stop offset="0.47" stop-color="#eeedec"/><stop offset="0.73" stop-color="#f8f8f7"/><stop offset="1" stop-color="#fbfbfb"/></linearGradient><linearGradient id="y" x1="-0.018" y1="0.5" x2="1.018" y2="0.5" gradientUnits="objectBoundingBox"><stop offset="0"/><stop offset="0.49" stop-color="#c4171c"/><stop offset="1"/></linearGradient><linearGradient id="z" x1="-0.019" y1="0.5" x2="1.014" y2="0.5" xlink:href="#y"/></defs><g transform="translate(-13.829 -34.633)"><g transform="translate(13.829 34.633)"><g class="a" transform="translate(0 144.825)"><path class="b" d="M138.863,169.616V167.57L60.5,245.965h2.061Z" transform="translate(18.965 -88.121)"/><path class="c" d="M142.056,163.325a14.359,14.359,0,0,0-.189-1.825L54.44,248.943l1.825.189Z" transform="translate(15.489 -91.602)"/><path class="d" d="M24.39,243.063l.488.5.472.472L137.073,132.457l-.5-.5-.5-.5Z" transform="translate(-1.746 -108.838)"/><path class="c" d="M133.736,176.872c.142-.8.283-1.574.393-2.392l-66.719,66.7c.8-.11,1.574-.252,2.408-.378Z" transform="translate(22.928 -84.158)"/><path class="e" d="M143.886,157.692c-.11-.551-.236-1.1-.362-1.652L49,250.6l1.652.362Z" transform="translate(12.369 -94.734)"/><path class="f" d="M109.429,195.34,88.28,216.5a79.826,79.826,0,0,0,11.581-9.583A77.1,77.1,0,0,0,109.429,195.34Z" transform="translate(34.898 -72.193)"/><path class="g" d="M144.708,152.574c-.157-.5-.33-1.007-.5-1.574L44,251.267l1.574.5Z" transform="translate(9.501 -97.625)"/><path class="h" d="M27.7,246.011l1.086.928L139.895,135.862c-.3-.378-.6-.74-.913-1.1Z" transform="translate(0.152 -106.939)"/><path class="i" d="M142.094,139.556c-.268-.409-.535-.8-.818-1.2L31.3,248.352l1.18.818Z" transform="translate(2.217 -104.875)"/><path class="c" d="M143.681,143.55c-.236-.441-.472-.865-.724-1.29L35.2,250.033l1.275.724Z" transform="translate(4.454 -102.638)"/><path class="c" d="M144.565,147.88l-.614-1.4L39.42,251.012l1.385.629Z" transform="translate(6.874 -100.217)"/><path class="j" d="M125.207,185.927c.378-1.023.74-2.061,1.07-3.147L75.75,233.291c1.039-.33,2.077-.692,3.147-1.07Z" transform="translate(27.712 -79.397)"/><path class="i" d="M119.261,121.784c-.472-.2-.928-.425-1.4-.614L14.1,224.915c.2.472.409.928.629,1.4Z" transform="translate(-7.648 -114.734)"/><path class="i" d="M124.7,123.994l-1.29-.724L16.2,230.477l.724,1.275Z" transform="translate(-6.444 -113.53)"/><path class="i" d="M129.44,126.524l-1.2-.834L18.63,235.32l.818,1.18Z" transform="translate(-5.05 -112.142)"/><path class="k" d="M133.539,129.333l-1.1-.913L21.36,239.482l.928,1.086Z" transform="translate(-3.484 -110.576)"/><path class="i" d="M77.243,117.6c-.8.11-1.574.252-2.392.393L10.918,181.911q-.2,1.2-.378,2.408Z" transform="translate(-9.69 -116.782)"/><path class="f" d="M39.784,125.68a79.1,79.1,0,0,0-11.6,9.583,80.74,80.74,0,0,0-9.567,11.581Z" transform="translate(-5.056 -112.147)"/><path class="l" d="M113.058,119.934l-1.574-.5L12.35,218.564c.157.5.33,1.007.488,1.574Z" transform="translate(-8.652 -115.732)"/><path class="m" d="M88.426,117.08H86.381L10,193.429v2.061Z" transform="translate(-10 -117.08)"/><path class="n" d="M13.566,166.96c-.378,1.023-.74,2.061-1.086,3.147L63.007,119.58c-1.023.33-2.061.692-3.147,1.07Z" transform="translate(-8.578 -115.646)"/><path class="i" d="M105.967,118.472l-1.652-.362L11.05,211.375c.11.551.236,1.1.346,1.652Z" transform="translate(-9.398 -116.489)"/><path class="i" d="M97.852,117.479c-.614,0-1.212-.142-1.825-.189L10.22,203.08l.189,1.825Z" transform="translate(-9.874 -116.96)"/></g><circle class="o" cx="18.096" cy="18.096" r="18.096" transform="translate(52.557 125.817)"/><circle class="o" cx="9.441" cy="9.441" r="9.441" transform="translate(5.35 390.175)"/><path class="p" d="M133.057,166.954c-3.147-.865-8.308-9.016-12.494-9.441s-9.253,4.563-13.533,1.448-4.721-16.459-9.567-19.119-8.544.315-10.417-2.832.551-13.847-3.839-17.624-7.962-2.533-8.828-5.838,1.747-8.529-1.794-13.47-4.878-11.267.409-8.324,9.992,6.672,15.311,5.492,4.359,7.868,8.135,10.055,9.441-1.479,12.463.441,3.3,12.211,5.869,13.186,12.793-6.153,17.577-4.17-1.07,14.965,4.06,16.916,11.361,4.39,11.361,4.39Z" transform="translate(24.11 12.789)"/><path class="q" d="M76.65,99.26s5.775,19.056,57.466,52.164l3.289-5.35S95.643,127.915,76.65,99.26Z" transform="translate(28.228 17.524)"/><path class="r" d="M78.092,161.6c-11.55,7.695-18.08,45.775,4.233,46.53,15.374.535,21.432-13.312,15.736-17.624C83.553,179.68,66.59,217.76,83.553,225.439c7.978,3.635,16.082-2.156,24.815-9.19,13.36-10.795,28.2-24.516,46.341-11.959" transform="translate(22.977 53.28)"/><path class="s" d="M268.375,238.91c0,3.021-10.055,5.476-22.455,5.476s-22.47-2.455-22.47-5.476,10.055-5.46,22.47-5.46S268.375,235.889,268.375,238.91Z" transform="translate(112.426 94.49)"/><path class="s" d="M186.941,252.616c0,3.021-10.055,5.46-22.455,5.46S142,255.637,142,252.616s10.055-5.476,22.47-5.476S186.941,249.595,186.941,252.616Z" transform="translate(65.71 102.342)"/><path class="s" d="M397.467,235.26H141.984a90.528,90.528,0,0,1-26.341-3.934L75.91,219.21H467.459l-45.791,12.746A90.5,90.5,0,0,1,397.467,235.26Z" transform="translate(27.803 86.323)"/><path class="t" d="M341.285,82.436a90.511,90.511,0,0,0-22.864,1.574,20.173,20.173,0,0,0-13.816,9.441c-5.366,8.859-13.659,22.911-15.405,27.836,0,0-14.744-2.3-23.068-7.364l-3.682,7.254s8.482,5.869,33.438,14.036a121.681,121.681,0,0,0,11.361-22.03s-.818,6.027,2.014,16.711c2.234,8.45-3.021,41.416-3.021,41.416l54.288-1.951-4.469-32.777,6.593-8.466a10.921,10.921,0,0,0,2.14-8.45,90.007,90.007,0,0,0-9.221-27.946A18.033,18.033,0,0,0,341.285,82.436Z" transform="translate(134.795 7.787)"/><path class="u" d="M320.784,112.939l-2-13.879s-2.675,18.222-3.855,20.456Z" transform="translate(164.896 17.41)"/><path class="v" d="M310.12,120.125c-2.77.96-9.882,3.147-9.221,4.721.378.834,5.4-1.149,5.948-.456s-1.369,3.147-4.579,4.862c-2.486,1.306-4.217,1.039-4.327,2.234-.126,1.574,7.238,1.353,9.111,1.117a10.527,10.527,0,0,0,4.988-2.109,34.839,34.839,0,0,0,3.367-3.462A28.42,28.42,0,0,1,320,123.508l-3.666-5.948S311.709,119.574,310.12,120.125Z" transform="translate(155.15 28.021)"/><path class="w" d="M300.9,77.761l1.149,13.218s7.16,6.105,13.391-.787L311.978,74.22Z" transform="translate(156.849 3.162)"/><path class="x" d="M325.893,56.029a20.456,20.456,0,0,1,6.043,15.138c0,10.2-12.069,24.61-23.116,24.61-9.74,0-17.64-10.008-17.64-22.36,0-9.441,4.721-17.467,11.188-20.818a21.086,21.086,0,0,1,23.525,3.43Z" transform="translate(151.274 -10.464)"/><path class="y" d="M299.094,67.76s-.094.409-.268.991a18.161,18.161,0,0,0-.519,2.061,2.627,2.627,0,0,0,0,1.007,1.2,1.2,0,0,0,.456.677l.315.2.283.11.268.126h-.283a1.857,1.857,0,0,1-.787,0,2.125,2.125,0,0,1-.5-.3,1.573,1.573,0,0,1-.393-.519,1.716,1.716,0,0,1-.173-.677,2.437,2.437,0,0,1,0-.677,5.114,5.114,0,0,1,.865-2.156A3.932,3.932,0,0,1,299.094,67.76Z" transform="translate(154.878 -0.543)"/><path class="z" d="M297.081,69.814c0,.976-1.1,1.778-2.471,1.778s-2.471-.8-2.471-1.778,1.1-1.794,2.471-1.794S297.081,68.823,297.081,69.814Z" transform="translate(151.824 -0.394)"/><path class="z" d="M309.385,69.933c0,1.086-1.353,1.983-3.006,1.983s-2.99-.9-2.99-1.983,1.338-1.983,2.99-1.983S309.385,68.831,309.385,69.933Z" transform="translate(158.277 -0.434)"/><ellipse class="s" cx="44.217" cy="7.695" rx="44.217" ry="7.695" transform="translate(417.056 303.519)"/><path class="aa" d="M329.306,213.61s2.549.519,2.187,4.374a87.92,87.92,0,0,0-.236,9.016l-1.086.425a24.075,24.075,0,0,0-.928-4.721c-.315,0-2.47,4.721-5,5.728s-8.954,3.147-10.779,1.275,2.47-3.9,4.721-5.256S329.306,213.61,329.306,213.61Z" transform="translate(163.8 83.111)"/><path class="x" d="M318.966,206.369s2.659,10.559,1.369,15.106-4.721,8.4-5.146,9.315,4.721.3,6.609-1.275,6.672-9.8,6.373-10.9a72.75,72.75,0,0,1-.787-13.942Z" transform="translate(165.03 77.983)"/><path class="aa" d="M303.115,214.32s2.455.865,1.574,4.626a89.193,89.193,0,0,0-1.432,8.922l-1.117.268a24.584,24.584,0,0,0-.3-4.721c-.315-.094-2.958,4.359-5.618,5.083s-9.441,1.841-11.015-.252,2.958-3.541,5.4-4.579S303.115,214.32,303.115,214.32Z" transform="translate(147.662 83.518)"/><path class="x" d="M294.325,205.961s1.227,10.826-.661,15.153-5.854,7.695-6.294,8.544,4.721.944,6.719-.378,7.868-8.812,7.773-9.945a73.086,73.086,0,0,1,1.086-13.926Z" transform="translate(149.073 78.408)"/><path class="ab" d="M292.2,139.587s-4.595,46-5.224,61.369c-.566,13.548,5.759,55.531,5.759,55.531l11.015-.944s1.29-40.252,4.39-53.658c2.376-10.228,9.441-40.913,9.441-40.913s3.635,29.1,4.862,38.788c1.715,13.784,10.921,56.459,10.921,56.459l12.919-.566s-3.446-43.068-3.242-57.419c.189-15.153,3.478-60.614,3.478-60.614Z" transform="translate(148.84 39.526)"/><path class="ac" d="M292.2,139.105s-4.595,46-5.224,61.369c-.566,13.548,5.759,55.531,5.759,55.531l11.015-.944s1.29-40.252,4.39-53.658c2.376-10.228,9.441-40.913,9.441-40.913s-6.294-7.663-8.277-22.03Z" transform="translate(148.84 40.008)"/><path class="ad" d="M333.856,72.98s-2.423,7.49-14.162.692a87.962,87.962,0,0,1-19.276-14.965s-3.839,9.9-9.9,13.863A55.246,55.246,0,0,1,292,62.091c1.259-3.981,4.846-12.274,17.309-12.777C337.522,48.181,333.856,72.98,333.856,72.98Z" transform="translate(150.895 -11.144)"/><path class="ad" d="M321.7,67.884a9.064,9.064,0,0,0,4-11.015c-2.518-7.4-12.321-11.393-17.309-4.721" transform="translate(161.145 -11.446)"/><path class="ad" d="M301.54,65.354c0,.881.456,1.574,1.023,1.574s1.023-.724,1.023-1.574-.456-1.574-1.023-1.574S301.54,64.472,301.54,65.354Z" transform="translate(157.216 -2.826)"/><path class="ad" d="M294.76,65.734c0,.881.472,1.574,1.07,1.574s1.07-.724,1.07-1.574-.488-1.574-1.07-1.574S294.76,64.852,294.76,65.734Z" transform="translate(153.327 -2.608)"/><path class="ae" d="M305.53,72.52s-5.051,2.392-9.079.378C296.356,75.022,301.565,79.176,305.53,72.52Z" transform="translate(154.296 2.187)"/><path d="M312.041,70.5c-1.353,4.138.157,8.245,3.352,9.174s6.876-1.668,8.214-5.806-.157-8.23-3.352-9.174S313.378,66.358,312.041,70.5Z" transform="translate(162.954 -2.414)"/><path class="af" d="M320.939,72.39A17.718,17.718,0,0,1,303,78.81" transform="translate(158.053 2.113)"/><path d="M303.679,75.727a1.184,1.184,0,1,0,.952,1.377,1.184,1.184,0,0,0-.952-1.377Z" transform="translate(157.642 4.016)"/><path class="af" d="M331.877,79.06s3.4-31.125-21.259-31.33c-5.633,0-15.736,2.061-18.678,11.943" transform="translate(151.71 -12.031)"/><path class="ag" d="M391.868,129.661h0L272.5,63.571a41.07,41.07,0,0,0-39.764,0l-119.386,66.09h0a16.884,16.884,0,0,0-8.828,14.854V310.683A16.916,16.916,0,0,0,121.436,327.6H383.8a16.916,16.916,0,0,0,16.916-16.916V144.531a16.9,16.9,0,0,0-8.843-14.87Z" transform="translate(44.213 -5.89)"/><path class="p" d="M211.13,76.383c1.369-3.147,10.2-6.8,11.219-10.889s-3.053-9.85.677-13.58,16.994-2.046,20.456-6.467,1.023-8.5,4.422-9.85,13.6,2.722,18.017-1.023,3.729-7.474,7.128-7.868,8.151,3.068,13.6.346,11.9-3.147,8.151,1.7-8.151,8.828-7.868,14.272-8.5,3.053-11.219,6.452,0,9.441-2.376,12.242-12.588,1.353-13.942,3.729,4.076,13.6,1.369,18.017-14.618-3.4-17.309,1.369S237.33,95.36,237.33,95.36Z" transform="translate(105.36 -25.043)"/><path class="q" d="M277.888,31.1S258.171,33.822,217.4,79.723l4.721,4.076S246.668,45.372,277.888,31.1Z" transform="translate(108.956 -21.569)"/><path class="ah" d="M145.481,55H335.142a19.4,19.4,0,0,1,19.4,19.4V288.044H126V74.371A19.4,19.4,0,0,1,145.481,55Z" transform="translate(56.533 -7.861)"/><g transform="translate(211.597 81.537)"><rect class="ai" width="170.511" height="1.338"/><rect class="ai" width="170.511" height="1.338" transform="translate(0 18.836)"/><rect class="ai" width="170.511" height="1.338" transform="translate(0 37.687)"/><rect class="ai" width="170.511" height="1.338" transform="translate(0 56.522)"/><rect class="ai" width="170.511" height="1.338" transform="translate(0 75.374)"/><rect class="ai" width="170.511" height="1.338" transform="translate(0 94.209)"/><rect class="ai" width="170.511" height="1.338" transform="translate(0 113.06)"/><rect class="ai" width="170.511" height="1.338" transform="translate(0 131.896)"/></g><path class="aj" d="M375.916,127.733,251.243,252.391a.692.692,0,0,1-.976,0L125.61,127.733A29.709,29.709,0,0,0,104.54,119h0V275.931a16.916,16.916,0,0,0,16.916,16.916H383.784A16.916,16.916,0,0,0,400.7,275.931V119h-3.84a29.709,29.709,0,0,0-20.944,8.733Z" transform="translate(44.224 28.846)"/><path class="ak" d="M294.789,176.07l-43.6,43.588a.692.692,0,0,1-.976,0L207.3,176.747,104.53,237.329v5.964a16.916,16.916,0,0,0,16.916,16.916H383.79a16.916,16.916,0,0,0,16.916-16.916v-5.334Z" transform="translate(44.219 61.58)"/><path class="al" d="M400.7,248.3v-5.035l-128.2-70.9a41.07,41.07,0,0,0-39.764,0l-128.2,70.9V248.3a16.916,16.916,0,0,0,16.916,16.916H383.784A16.916,16.916,0,0,0,400.7,248.3Z" transform="translate(44.224 56.508)"/><path class="am" d="M252.438,219.438c0,3.147.5-2,10.2-2,7.364,0,.677,19.229-11.015,19.89a3.4,3.4,0,0,0-2,4.013c.5,3.147,21.227-4.186,21.227-21.4C270.833,208.407,252.438,210.752,252.438,219.438Z" transform="translate(127.372 82.24)"/><path class="am" d="M219.87,209.51s1.353,44.736,29.52,44.736c25.476,0,28.324-44.736,28.324-44.736Z" transform="translate(110.373 80.759)"/><path class="an" d="M227.664,213.16a30.1,30.1,0,0,1-6.294-1.29c1.1,10.858,6.09,41.164,27.1,41.023a20.767,20.767,0,0,0,3.918-.409C233.754,249.116,228.892,224.018,227.664,213.16Z" transform="translate(111.233 82.113)"/><path class="an" d="M277.746,211.191c0,2.549-12.95,4.611-28.938,4.611s-28.938-2.061-28.938-4.611,12.95-4.611,28.938-4.611S277.746,208.641,277.746,211.191Z" transform="translate(110.373 79.079)"/><ellipse class="am" cx="25.838" cy="3.619" rx="25.838" ry="3.619" transform="translate(333.343 286.65)"/><path class="ao" d="M225.53,211.482a150.666,150.666,0,0,0,40.079,0,152.447,152.447,0,0,0-40.063,0Z" transform="translate(113.619 81.132)"/><path class="ap" d="M157.871,87.148c-26.514,2.077-52.274,28.481-57.278,33.863s-30.307,32.274-31.078,58.8c-.456,15.531,10.244,30.653,16.758,35.688l29.9-37.64s-4.831-4.815-15.405-7.773c0,0,2.612-13.5,18.883-30.527,15.295-16.05,30.024-20.724,30.024-20.724,3.462,10.417,8.513,15.012,8.513,15.012l36.192-31.739C188.98,95.9,173.354,85.92,157.871,87.148Z" transform="translate(24.127 10.518)"/><path class="aq" d="M112.221,146.3l-5.35-4.013c-3.525-2.738-13,3.525-21.18,13.989s-11.943,21.2-8.419,23.95l5.35,4.013Z" transform="translate(27.826 41.833)"/><path class="aq" d="M101.821,168.786c-8.167,10.48-17.655,16.743-21.18,13.989s.252-13.47,8.419-23.95,17.655-16.743,21.227-13.989S110,158.306,101.821,168.786Z" transform="translate(29.76 43.293)"/><g transform="translate(108.838 187.356)"><path class="ar" d="M80.73,182.821l-.441-.409a1.81,1.81,0,0,1-.441-.582,2.627,2.627,0,0,1-.393-.928,7.869,7.869,0,0,1-.268-2.691,16.43,16.43,0,0,1,.582-3.446,29.459,29.459,0,0,1,1.338-3.9,36.477,36.477,0,0,1,1.967-4.154,47.049,47.049,0,0,1,2.518-4.2c.944-1.385,1.9-2.754,2.943-4.123s2.14-2.6,3.273-3.855,2.3-2.376,3.462-3.462a39.044,39.044,0,0,1,3.556-2.911,30.528,30.528,0,0,1,3.446-2.25,17.17,17.17,0,0,1,3.147-1.4,7.978,7.978,0,0,1,2.675-.393,2.439,2.439,0,0,1,.991.157,1.952,1.952,0,0,1,.677.283l.5.33-.535-.252a1.651,1.651,0,0,0-.692-.173,3.005,3.005,0,0,0-.944,0,7.868,7.868,0,0,0-2.486.645,21.633,21.633,0,0,0-2.943,1.574,28.839,28.839,0,0,0-3.147,2.376c-1.1.913-2.187,1.951-3.3,3.021s-2.2,2.266-3.3,3.478-2.124,2.486-3.147,3.824-2,2.628-2.911,3.981-1.794,2.691-2.581,4.028a37.474,37.474,0,0,0-2.124,3.934,30.276,30.276,0,0,0-1.574,3.7,22.456,22.456,0,0,0-.865,3.257,8.655,8.655,0,0,0,0,2.549,3.147,3.147,0,0,0,.268.913,1.574,1.574,0,0,0,.346.614Z" transform="translate(-79.166 -144.108)"/></g><path class="aq" d="M164.042,98.878l-4.5-4.925c-2.958-3.367-13.438,1.023-23.43,9.788s-15.736,18.6-12.73,22.03L127.9,130.7Z" transform="translate(54.573 13.83)"/><path class="aq" d="M149.66,119.047c-9.992,8.765-20.456,13.155-23.415,9.788s2.738-13.186,12.73-21.951,20.456-13.155,23.415-9.8S159.636,110.282,149.66,119.047Z" transform="translate(56.225 15.629)"/><g transform="translate(181.601 111.387)"><path class="as" d="M126.34,128.906l-.362-.472a2.155,2.155,0,0,1-.33-.661,3.147,3.147,0,0,1-.22-.991,8.433,8.433,0,0,1,.252-2.691,15.262,15.262,0,0,1,1.212-3.273,30.322,30.322,0,0,1,2.046-3.588,39.341,39.341,0,0,1,2.691-3.714c1.007-1.227,2.093-2.47,3.257-3.666s2.408-2.36,3.666-3.493a49.92,49.92,0,0,1,3.934-3.147c1.353-.991,2.707-1.9,4.06-2.754a39.181,39.181,0,0,1,4.028-2.2,30.889,30.889,0,0,1,3.808-1.574,16.225,16.225,0,0,1,3.415-.787A8.293,8.293,0,0,1,160.5,96a2.486,2.486,0,0,1,.928.346,1.967,1.967,0,0,1,.614.393l.441.425L162,96.821a1.809,1.809,0,0,0-.629-.3,2.974,2.974,0,0,0-.928-.22,7.868,7.868,0,0,0-2.565.173,22.6,22.6,0,0,0-3.147,1.039,31.05,31.05,0,0,0-3.7,1.731c-1.243.677-2.5,1.574-3.808,2.345a46.113,46.113,0,0,0-3.887,2.8c-1.306.976-2.565,2.061-3.808,3.147s-2.47,2.219-3.619,3.367-2.266,2.313-3.273,3.493-1.983,2.313-2.832,3.462a31.064,31.064,0,0,0-2.187,3.352,22.518,22.518,0,0,0-1.448,3.021,7.868,7.868,0,0,0-.488,2.518,2.942,2.942,0,0,0,0,.944,1.9,1.9,0,0,0,.22.677Z" transform="translate(-125.408 -95.83)"/></g><path class="at" d="M72,164.047s17.75-49.536,67.663-72.887C139.663,91.16,99.773,109.445,72,164.047Z" transform="translate(25.561 12.879)"/><path class="aq" d="M140.887,106.29s-14.162,1.668-35,20.551c-14.713,13.375-21.621,32.1-21.621,32.1a16.617,16.617,0,0,1,5.822-.2,95.138,95.138,0,0,1,50.795-52.447Z" transform="translate(32.598 21.557)"/><path class="au" d="M116.6,72.694a18.55,18.55,0,0,0,.724,2.8,4.233,4.233,0,0,0,.85,1.574,1.385,1.385,0,0,0,.991.5,2.486,2.486,0,0,0,1.149-.315,3.336,3.336,0,0,0,1.574-1.967,9.126,9.126,0,0,0,.33-3.336,19.178,19.178,0,0,0-.818-4.233A27.756,27.756,0,0,0,119.431,63a17.089,17.089,0,0,0-3.367-4.548,11.015,11.015,0,0,0-4.091-2.486,10.511,10.511,0,0,0-4.721-.378,15.185,15.185,0,0,0-5.1,1.731,16.145,16.145,0,0,0-5.728,4.972A18.08,18.08,0,0,0,93.514,69.2a23.037,23.037,0,0,0,0,8.057,27.1,27.1,0,0,0,2.8,8.419,21.715,21.715,0,0,0,4.28,5.791,14.068,14.068,0,0,0,5.114,3.147,12.588,12.588,0,0,0,5.681.551,17.057,17.057,0,0,0,6.027-1.983,30.825,30.825,0,0,0,3.556-2.077,28.942,28.942,0,0,0,2.628-2.093,20.2,20.2,0,0,0,1.841-1.888,11.013,11.013,0,0,0,1.086-1.574,4.406,4.406,0,0,1,1.07-1.133,2.234,2.234,0,0,1,.976-.378,1.7,1.7,0,0,1,.881.173,4.231,4.231,0,0,1,.74.535l1.762,1.873a30.544,30.544,0,0,1-2.061,3.147,28.687,28.687,0,0,1-6.153,6.058,31.941,31.941,0,0,1-4.2,2.644,23.3,23.3,0,0,1-8.45,2.707,18.536,18.536,0,0,1-7.868-.8,19.843,19.843,0,0,1-6.971-4.123,26.105,26.105,0,0,1-5.539-7.27,30.007,30.007,0,0,1-2.644-6.939,30.873,30.873,0,0,1-.85-7.144,28.01,28.01,0,0,1,.865-6.971,26.436,26.436,0,0,1,2.5-6.42,24.3,24.3,0,0,1,4.06-5.445,22.281,22.281,0,0,1,5.555-4.123,19.166,19.166,0,0,1,6.924-2.172,17.577,17.577,0,0,1,6.908.629,17.844,17.844,0,0,1,6.294,3.383,20.142,20.142,0,0,1,4.862,6.137,23.3,23.3,0,0,1,2.408,6.876,19.464,19.464,0,0,1,0,6.609,14.823,14.823,0,0,1-2.156,5.618,11.392,11.392,0,0,1-4.28,3.918,7.1,7.1,0,0,1-1.574.614,4.532,4.532,0,0,1-1.574.126,4.91,4.91,0,0,1-1.574-.456,5.067,5.067,0,0,1-1.574-1.149,12.117,12.117,0,0,1-2.109,4.359,10.165,10.165,0,0,1-3.147,2.644,6.294,6.294,0,0,1-2.785.818,5.664,5.664,0,0,1-2.644-.362,6.971,6.971,0,0,1-2.172-1.574,10.874,10.874,0,0,1-1.762-2.471,16.1,16.1,0,0,1-1.369-3.635,17.309,17.309,0,0,1-.5-4.044,17.625,17.625,0,0,1,.5-4.2,15.248,15.248,0,0,1,1.574-4.107,17.4,17.4,0,0,1,2.927-3.745,19.149,19.149,0,0,1,4.343-3.147c.755-.393,1.448-.724,2.061-.991a17.638,17.638,0,0,1,1.794-.629,12.274,12.274,0,0,1,1.652-.378c.519,0,1.07-.142,1.574-.173Zm-7.065-4.721a7.872,7.872,0,0,0-1.18.519,5.681,5.681,0,0,0-2.172,2.156,9.316,9.316,0,0,0-1.227,3.147,12.352,12.352,0,0,0-.094,3.745,11.109,11.109,0,0,0,1.18,3.729c.881,1.668,1.873,2.187,3.006,1.574a4.091,4.091,0,0,0,.928-.74,3.415,3.415,0,0,0,.692-1.2,6.105,6.105,0,0,0,.3-1.747,12.259,12.259,0,0,0-.2-2.36Z" transform="translate(34.29 -10.921)"/><circle class="aj" cx="5.57" cy="5.57" r="5.57" transform="translate(225.586 21.112)"/><circle class="aj" cx="2.785" cy="2.785" r="2.785" transform="translate(108.78 294.549)"/><path class="av" d="M352.379,46.039a7.695,7.695,0,1,1-7.695-7.679,7.695,7.695,0,0,1,7.695,7.679Z" transform="translate(177.548 -17.405)"/><circle class="aw" cx="36.349" cy="36.349" r="36.349" transform="translate(195.877 283.645)"/><path class="ax" d="M168.1,224.869a8.23,8.23,0,1,0-8.214-8.23,8.23,8.23,0,0,0,8.214,8.23Zm-3.147,38.552c-2.88-2.612,10.637-25.177,8.859-32.494-1.29-5.35-22.8-1.841-23.021-.267,0,0,6.2-.787,7.3,2.109s-7.3,20.173-8.859,26.751,5.759,8.655,10.637,8.655c5.759,0,15.043-3.934,14.823-5.775s-6.829,3.588-9.693,1.023Z" transform="translate(69.739 80.128)"/><path class="aj" d="M300.782,49.44v-.787A10.622,10.622,0,0,0,290.16,38H278.516A10.606,10.606,0,0,0,267.91,48.606v.787A10.621,10.621,0,0,0,278.516,60.03h12.069a11.6,11.6,0,0,0,9.441,5.382,9.331,9.331,0,0,1-4.721-6.719,10.574,10.574,0,0,0,5.476-9.253Z" transform="translate(137.927 -17.612)"/><path class="am" d="M276.746,45.718a1.778,1.778,0,1,1-1.778-1.778A1.778,1.778,0,0,1,276.746,45.718Z" transform="translate(140.955 -14.205)"/><path class="am" d="M280.878,45.718A1.794,1.794,0,1,1,279.1,43.94,1.794,1.794,0,0,1,280.878,45.718Z" transform="translate(143.307 -14.205)"/><path class="am" d="M284.976,45.718A1.778,1.778,0,1,1,283.2,43.94a1.778,1.778,0,0,1,1.778,1.778Z" transform="translate(145.676 -14.205)"/></g></g></svg>